<svg xmlns="http://www.w3.org/2000/svg" viewBox="0 0 128 128" role="img" aria-labelledby="title">
  <title id="title">AI进化日记</title>
  <defs>
    <linearGradient id="left" x1="28" y1="110" x2="63" y2="12" gradientUnits="userSpaceOnUse">
      <stop stop-color="#123cff"/>
      <stop offset=".52" stop-color="#0874ff"/>
      <stop offset="1" stop-color="#1596ff"/>
    </linearGradient>
    <linearGradient id="right" x1="62" y1="12" x2="111" y2="110" gradientUnits="userSpaceOnUse">
      <stop stop-color="#096fff"/>
      <stop offset=".52" stop-color="#1747f8"/>
      <stop offset="1" stop-color="#7130f5"/>
    </linearGradient>
    <linearGradient id="fold" x1="51" y1="64" x2="80" y2="116" gradientUnits="userSpaceOnUse">
      <stop stop-color="#0870ff"/>
      <stop offset="1" stop-color="#2632dc"/>
    </linearGradient>
    <linearGradient id="tip" x1="82" y1="73" x2="109" y2="112" gradientUnits="userSpaceOnUse">
      <stop stop-color="#4753ff"/>
      <stop offset="1" stop-color="#7c2ff2"/>
    </linearGradient>
    <filter id="shadow" x="-20%" y="-20%" width="140%" height="155%">
      <feDropShadow dx="0" dy="5" stdDeviation="4" flood-color="#2020a0" flood-opacity=".18"/>
    </filter>
  </defs>
  <g filter="url(#shadow)">
    <path d="M53.2 9.8c5.8-9.3 19.7-9.2 25.2.3l40.3 75.5c4.5 8.4 1.7 18.8-6.4 23.8l-3.6 2.2c-8.7 5.4-20.2 2.3-25-6.7L64.9 69.7l-18.7 35.4c-4.7 8.9-16 12.1-24.7 7l-4.4-2.6c-8.1-4.8-11-15.1-6.7-23.5L53.2 9.8Z" fill="url(#left)"/>
    <path d="M65.8 2.8c5.1.1 10 2.8 12.7 7.4l40.2 75.4c4.5 8.4 1.7 18.8-6.4 23.8l-3.6 2.2c-8.7 5.4-20.2 2.3-25-6.7L64.9 69.7l-8.4-15.8L65.8 2.8Z" fill="url(#right)" opacity=".94"/>
    <path d="M64.9 69.7 83.7 105c2.6 4.8 7.1 8.1 12.1 9.3-8.9 2.1-19.4 5.1-27.4 7.8-7.3 2.5-15.3-1.1-18.3-8.2l-5.3-12.6 20.1-31.6Z" fill="url(#fold)"/>
    <path d="M83.7 105c4.8 9 16.3 12.1 25 6.7l3.6-2.2c5.1-3.2 8.2-8.7 8.3-14.5-11.7 9.5-22.7 11.8-36.9 10Z" fill="url(#tip)" opacity=".92"/>
    <path d="M57.4 54.6c3.3-6.4 12.4-6.4 15.8 0l8.2 15.7c3 5.7-1.2 12.5-7.6 12.5H56.4c-6.5 0-10.6-6.9-7.6-12.6l8.6-15.6Z" fill="#fff"/>
    <path d="M52.3 12.1c3.2-6.1 9.1-9.1 14.9-9.2-8 12.2-13.3 24.4-16.4 37.5L34.6 71.3 9.8 93.1c-.1-2.5.4-5 1.6-7.3l40.9-73.7Z" fill="#20a2ff" opacity=".22"/>
  </g>
</svg>
