<svg xmlns="http://www.w3.org/2000/svg" viewBox="0 0 128 128"><defs><linearGradient id="a" x1="20" y1="112" x2="72" y2="4" gradientUnits="userSpaceOnUse"><stop stop-color="#123cff"/><stop offset=".55" stop-color="#0874ff"/><stop offset="1" stop-color="#1596ff"/></linearGradient><linearGradient id="b" x1="64" y1="4" x2="114" y2="112" gradientUnits="userSpaceOnUse"><stop stop-color="#096fff"/><stop offset=".52" stop-color="#1747f8"/><stop offset="1" stop-color="#7130f5"/></linearGradient></defs><path d="M53 10c6-10 20-10 26 0l40 76c5 8 2 19-7 24l-3 2c-9 5-20 2-25-7L65 70l-19 35c-5 9-16 12-25 7l-4-3c-8-5-11-15-7-23L53 10Z" fill="url(#a)"/><path d="M66 3c5 0 10 3 13 7l40 76c5 8 2 19-7 24l-3 2c-9 5-20 2-25-7L65 70l-9-16L66 3Z" fill="url(#b)" opacity=".95"/><path d="M65 70l19 35c3 5 7 8 12 9-9 2-20 5-28 8-7 2-15-1-18-8l-5-13 20-31Z" fill="#1747ee"/><path d="M57 55c3-7 13-7 16 0l8 15c3 6-1 13-7 13H56c-6 0-10-7-7-13l8-15Z" fill="#fff"/></svg>
